%TF.GenerationSoftware,KiCad,Pcbnew,9.0.0*%
%TF.CreationDate,2025-05-05T10:21:01+02:00*%
%TF.ProjectId,LM4502,4c4d3435-3032-42e6-9b69-6361645f7063,rev?*%
%TF.SameCoordinates,Original*%
%TF.FileFunction,Copper,L1,Top*%
%TF.FilePolarity,Positive*%
%FSLAX46Y46*%
G04 Gerber Fmt 4.6, Leading zero omitted, Abs format (unit mm)*
G04 Created by KiCad (PCBNEW 9.0.0) date 2025-05-05 10:21:01*
%MOMM*%
%LPD*%
G01*
G04 APERTURE LIST*
G04 Aperture macros list*
%AMRoundRect*
0 Rectangle with rounded corners*
0 $1 Rounding radius*
0 $2 $3 $4 $5 $6 $7 $8 $9 X,Y pos of 4 corners*
0 Add a 4 corners polygon primitive as box body*
4,1,4,$2,$3,$4,$5,$6,$7,$8,$9,$2,$3,0*
0 Add four circle primitives for the rounded corners*
1,1,$1+$1,$2,$3*
1,1,$1+$1,$4,$5*
1,1,$1+$1,$6,$7*
1,1,$1+$1,$8,$9*
0 Add four rect primitives between the rounded corners*
20,1,$1+$1,$2,$3,$4,$5,0*
20,1,$1+$1,$4,$5,$6,$7,0*
20,1,$1+$1,$6,$7,$8,$9,0*
20,1,$1+$1,$8,$9,$2,$3,0*%
G04 Aperture macros list end*
%TA.AperFunction,SMDPad,CuDef*%
%ADD10RoundRect,0.125000X-0.125000X0.537500X-0.125000X-0.537500X0.125000X-0.537500X0.125000X0.537500X0*%
%TD*%
%TA.AperFunction,SMDPad,CuDef*%
%ADD11RoundRect,0.250000X0.475000X-0.250000X0.475000X0.250000X-0.475000X0.250000X-0.475000X-0.250000X0*%
%TD*%
%TA.AperFunction,SMDPad,CuDef*%
%ADD12RoundRect,0.250000X0.450000X-0.262500X0.450000X0.262500X-0.450000X0.262500X-0.450000X-0.262500X0*%
%TD*%
%TA.AperFunction,SMDPad,CuDef*%
%ADD13R,0.600000X0.400000*%
%TD*%
%TA.AperFunction,SMDPad,CuDef*%
%ADD14R,0.550000X0.400000*%
%TD*%
%TA.AperFunction,SMDPad,CuDef*%
%ADD15R,2.030000X2.650000*%
%TD*%
%TA.AperFunction,SMDPad,CuDef*%
%ADD16RoundRect,0.250000X-0.475000X0.250000X-0.475000X-0.250000X0.475000X-0.250000X0.475000X0.250000X0*%
%TD*%
%TA.AperFunction,SMDPad,CuDef*%
%ADD17RoundRect,0.243750X-0.243750X-0.456250X0.243750X-0.456250X0.243750X0.456250X-0.243750X0.456250X0*%
%TD*%
%TA.AperFunction,ComponentPad*%
%ADD18RoundRect,0.250000X1.550000X-0.650000X1.550000X0.650000X-1.550000X0.650000X-1.550000X-0.650000X0*%
%TD*%
%TA.AperFunction,ComponentPad*%
%ADD19O,3.600000X1.800000*%
%TD*%
%TA.AperFunction,ComponentPad*%
%ADD20RoundRect,0.250000X-1.550000X0.650000X-1.550000X-0.650000X1.550000X-0.650000X1.550000X0.650000X0*%
%TD*%
%TA.AperFunction,SMDPad,CuDef*%
%ADD21RoundRect,0.250000X0.262500X0.450000X-0.262500X0.450000X-0.262500X-0.450000X0.262500X-0.450000X0*%
%TD*%
%TA.AperFunction,SMDPad,CuDef*%
%ADD22RoundRect,0.243750X0.243750X0.456250X-0.243750X0.456250X-0.243750X-0.456250X0.243750X-0.456250X0*%
%TD*%
%TA.AperFunction,SMDPad,CuDef*%
%ADD23RoundRect,0.250000X-0.262500X-0.450000X0.262500X-0.450000X0.262500X0.450000X-0.262500X0.450000X0*%
%TD*%
%TA.AperFunction,ViaPad*%
%ADD24C,0.600000*%
%TD*%
%TA.AperFunction,Conductor*%
%ADD25C,0.300000*%
%TD*%
G04 APERTURE END LIST*
D10*
%TO.P,U1,1,EN/UVLO*%
%TO.N,Net-(U1-EN{slash}UVLO)*%
X135450000Y-70612500D03*
%TO.P,U1,2,GND*%
%TO.N,GND*%
X134800000Y-70612500D03*
%TO.P,U1,3,N.C.*%
%TO.N,unconnected-(U1-N.C.-Pad3)*%
X134150000Y-70612500D03*
%TO.P,U1,4,VCAP*%
%TO.N,Net-(U1-VCAP)*%
X133500000Y-70612500D03*
%TO.P,U1,5,VS*%
%TO.N,/+12VIN*%
X133500000Y-72887500D03*
%TO.P,U1,6,GATE*%
%TO.N,Net-(Q1-G)*%
X134150000Y-72887500D03*
%TO.P,U1,7,OV*%
%TO.N,GND*%
X134800000Y-72887500D03*
%TO.P,U1,8,SRC*%
%TO.N,/SRC*%
X135450000Y-72887500D03*
%TD*%
D11*
%TO.P,C4,1*%
%TO.N,GND*%
X145500000Y-80650000D03*
%TO.P,C4,2*%
%TO.N,/+12VOUT*%
X145500000Y-78750000D03*
%TD*%
D12*
%TO.P,R2,1*%
%TO.N,/+12VIN*%
X125700000Y-75612500D03*
%TO.P,R2,2*%
%TO.N,Net-(U1-EN{slash}UVLO)*%
X125700000Y-73787500D03*
%TD*%
D13*
%TO.P,Q1,1*%
%TO.N,/SRC*%
X132875000Y-78000000D03*
%TO.P,Q1,2*%
X132875000Y-77350000D03*
%TO.P,Q1,3,S*%
X132875000Y-76700000D03*
%TO.P,Q1,4,G*%
%TO.N,Net-(Q1-G)*%
X132875000Y-76050000D03*
D14*
%TO.P,Q1,5,D*%
%TO.N,/+12VIN*%
X129650000Y-76050000D03*
%TO.P,Q1,6*%
X129650000Y-76700000D03*
%TO.P,Q1,7*%
X129650000Y-77350000D03*
%TO.P,Q1,8*%
X129650000Y-78000000D03*
D15*
X130940000Y-77025000D03*
%TD*%
D16*
%TO.P,C2,1*%
%TO.N,/+12VIN*%
X125700000Y-78500000D03*
%TO.P,C2,2*%
%TO.N,GND*%
X125700000Y-80400000D03*
%TD*%
D13*
%TO.P,Q2,1*%
%TO.N,/SRC*%
X136075000Y-76050000D03*
%TO.P,Q2,2*%
X136075000Y-76700000D03*
%TO.P,Q2,3,S*%
X136075000Y-77350000D03*
%TO.P,Q2,4,G*%
%TO.N,Net-(Q1-G)*%
X136075000Y-78000000D03*
D14*
%TO.P,Q2,5,D*%
%TO.N,/+12VOUT*%
X139300000Y-78000000D03*
%TO.P,Q2,6*%
X139300000Y-77350000D03*
%TO.P,Q2,7*%
X139300000Y-76700000D03*
%TO.P,Q2,8*%
X139300000Y-76050000D03*
D15*
X138010000Y-77025000D03*
%TD*%
D11*
%TO.P,C1,1*%
%TO.N,GND*%
X121600000Y-80550000D03*
%TO.P,C1,2*%
%TO.N,/+12VIN*%
X121600000Y-78650000D03*
%TD*%
D17*
%TO.P,D1,1,K*%
%TO.N,GND*%
X114862500Y-73500000D03*
%TO.P,D1,2,A*%
%TO.N,Net-(D1-A)*%
X116737500Y-73500000D03*
%TD*%
D12*
%TO.P,R3,1*%
%TO.N,Net-(U1-EN{slash}UVLO)*%
X125700000Y-71112500D03*
%TO.P,R3,2*%
%TO.N,GND*%
X125700000Y-69287500D03*
%TD*%
D18*
%TO.P,J3,1,Pin_1*%
%TO.N,/+12VOUT*%
X157567500Y-77250000D03*
D19*
%TO.P,J3,2,Pin_2*%
%TO.N,GND*%
X157567500Y-73440000D03*
%TD*%
D11*
%TO.P,C3,1*%
%TO.N,/+12VIN*%
X121600000Y-75650000D03*
%TO.P,C3,2*%
%TO.N,Net-(U1-VCAP)*%
X121600000Y-73750000D03*
%TD*%
D20*
%TO.P,J1,1,Pin_1*%
%TO.N,GND*%
X110500000Y-73400000D03*
D19*
%TO.P,J1,2,Pin_2*%
%TO.N,/+12VIN*%
X110500000Y-77210000D03*
%TD*%
D21*
%TO.P,R1,1*%
%TO.N,Net-(D1-A)*%
X116512500Y-77200000D03*
%TO.P,R1,2*%
%TO.N,/+12VIN*%
X114687500Y-77200000D03*
%TD*%
D22*
%TO.P,D2,1,K*%
%TO.N,GND*%
X153425000Y-73700000D03*
%TO.P,D2,2,A*%
%TO.N,Net-(D2-A)*%
X151550000Y-73700000D03*
%TD*%
D23*
%TO.P,R4,1*%
%TO.N,Net-(D2-A)*%
X151575000Y-77400000D03*
%TO.P,R4,2*%
%TO.N,/+12VOUT*%
X153400000Y-77400000D03*
%TD*%
D24*
%TO.N,Net-(Q1-G)*%
X136075000Y-79450000D03*
X134175000Y-74450000D03*
%TO.N,Net-(U1-EN{slash}UVLO)*%
X127300000Y-71000000D03*
X137000000Y-70600000D03*
%TD*%
D25*
%TO.N,/+12VIN*%
X133500000Y-73425000D02*
X131975000Y-74950000D01*
X133500000Y-72887500D02*
X133500000Y-73425000D01*
%TO.N,Net-(U1-VCAP)*%
X122950000Y-73750000D02*
X121600000Y-73750000D01*
X123851000Y-74651000D02*
X122950000Y-73750000D01*
X133500000Y-70612500D02*
X132587500Y-70612500D01*
X128549000Y-74651000D02*
X123851000Y-74651000D01*
X132587500Y-70612500D02*
X128549000Y-74651000D01*
%TO.N,Net-(D1-A)*%
X116512500Y-73725000D02*
X116737500Y-73500000D01*
X116512500Y-77200000D02*
X116512500Y-73725000D01*
%TO.N,Net-(D2-A)*%
X151550000Y-73700000D02*
X151550000Y-77375000D01*
X151550000Y-77375000D02*
X151575000Y-77400000D01*
%TO.N,Net-(Q1-G)*%
X136075000Y-78000000D02*
X136075000Y-79450000D01*
X134175000Y-72912500D02*
X134150000Y-72887500D01*
X134175000Y-74450000D02*
X134175000Y-72912500D01*
X134175000Y-74450000D02*
X133775000Y-74450000D01*
X133775000Y-74450000D02*
X132875000Y-75350000D01*
X132875000Y-75350000D02*
X132875000Y-76050000D01*
%TO.N,Net-(U1-EN{slash}UVLO)*%
X137000000Y-70600000D02*
X135462500Y-70600000D01*
X125812500Y-71000000D02*
X125700000Y-71112500D01*
X135462500Y-70600000D02*
X135450000Y-70612500D01*
X127300000Y-71000000D02*
X125812500Y-71000000D01*
X125700000Y-71112500D02*
X125700000Y-73787500D01*
%TO.N,/SRC*%
X135450000Y-72887500D02*
X135450000Y-75875000D01*
X135450000Y-75875000D02*
X135075000Y-76250000D01*
%TD*%
%TA.AperFunction,Conductor*%
%TO.N,/+12VIN*%
G36*
X116105039Y-74919685D02*
G01*
X116150794Y-74972489D01*
X116162000Y-75024000D01*
X116162000Y-76215526D01*
X116142315Y-76282565D01*
X116089511Y-76328320D01*
X116078956Y-76332567D01*
X116037118Y-76347207D01*
X115927850Y-76427850D01*
X115847207Y-76537117D01*
X115847206Y-76537119D01*
X115802353Y-76665298D01*
X115802353Y-76665300D01*
X115799500Y-76695730D01*
X115799500Y-77704269D01*
X115802353Y-77734699D01*
X115802353Y-77734701D01*
X115847206Y-77862880D01*
X115847207Y-77862882D01*
X115927850Y-77972150D01*
X116037118Y-78052793D01*
X116079845Y-78067744D01*
X116165299Y-78097646D01*
X116195730Y-78100500D01*
X116195734Y-78100500D01*
X116829270Y-78100500D01*
X116859699Y-78097646D01*
X116859701Y-78097646D01*
X116923790Y-78075219D01*
X116987882Y-78052793D01*
X117097150Y-77972150D01*
X117177793Y-77862882D01*
X117200219Y-77798790D01*
X117222646Y-77734701D01*
X117222646Y-77734699D01*
X117225500Y-77704269D01*
X117225500Y-76695730D01*
X117222646Y-76665300D01*
X117222646Y-76665298D01*
X117177793Y-76537119D01*
X117177792Y-76537117D01*
X117132612Y-76475900D01*
X117097150Y-76427850D01*
X116987882Y-76347207D01*
X116964813Y-76339134D01*
X116946044Y-76332567D01*
X116889269Y-76291845D01*
X116863522Y-76226892D01*
X116863000Y-76215526D01*
X116863000Y-75024000D01*
X116882685Y-74956961D01*
X116935489Y-74911206D01*
X116987000Y-74900000D01*
X123552957Y-74900000D01*
X123619996Y-74919685D01*
X123629012Y-74926951D01*
X123629342Y-74926522D01*
X123635785Y-74931466D01*
X123635788Y-74931469D01*
X123635791Y-74931470D01*
X123635794Y-74931473D01*
X123715706Y-74977611D01*
X123715707Y-74977611D01*
X123715712Y-74977614D01*
X123804856Y-75001500D01*
X123804858Y-75001500D01*
X128595142Y-75001500D01*
X128595144Y-75001500D01*
X128684288Y-74977614D01*
X128764212Y-74931470D01*
X128764216Y-74931465D01*
X128770657Y-74926524D01*
X128772618Y-74929080D01*
X128820686Y-74902834D01*
X128847044Y-74900000D01*
X132276000Y-74900000D01*
X132343039Y-74919685D01*
X132388794Y-74972489D01*
X132400000Y-75024000D01*
X132400000Y-75713625D01*
X132390562Y-75761076D01*
X132386131Y-75771771D01*
X132374500Y-75830247D01*
X132374500Y-76068722D01*
X132354815Y-76135761D01*
X132302011Y-76181516D01*
X132299235Y-76182743D01*
X132222623Y-76215488D01*
X132222618Y-76215491D01*
X132173115Y-76251457D01*
X132145371Y-76275697D01*
X132098464Y-76354205D01*
X132079557Y-76412394D01*
X132079557Y-76412397D01*
X132069500Y-76475895D01*
X132069500Y-78251005D01*
X132072029Y-78283138D01*
X132076881Y-78313777D01*
X132077646Y-78318282D01*
X132077647Y-78318285D01*
X132077648Y-78318287D01*
X132113592Y-78402383D01*
X132149062Y-78451203D01*
X132149557Y-78451884D01*
X132173797Y-78479628D01*
X132252306Y-78526536D01*
X132314317Y-78546684D01*
X132371993Y-78586121D01*
X132399192Y-78650479D01*
X132400000Y-78664615D01*
X132400000Y-79376000D01*
X132380315Y-79443039D01*
X132327511Y-79488794D01*
X132276000Y-79500000D01*
X107624000Y-79500000D01*
X107556961Y-79480315D01*
X107511206Y-79427511D01*
X107500000Y-79376000D01*
X107500000Y-75024000D01*
X107519685Y-74956961D01*
X107572489Y-74911206D01*
X107624000Y-74900000D01*
X116038000Y-74900000D01*
X116105039Y-74919685D01*
G37*
%TD.AperFunction*%
%TD*%
%TA.AperFunction,Conductor*%
%TO.N,GND*%
G36*
X163903234Y-67800712D02*
G01*
X164128412Y-67815470D01*
X164141237Y-67817159D01*
X164359386Y-67860551D01*
X164371886Y-67863900D01*
X164582500Y-67935395D01*
X164594463Y-67940351D01*
X164793926Y-68038715D01*
X164805142Y-68045190D01*
X164990072Y-68168757D01*
X165000345Y-68176640D01*
X165167560Y-68323282D01*
X165176717Y-68332439D01*
X165323359Y-68499654D01*
X165331242Y-68509927D01*
X165454809Y-68694857D01*
X165461284Y-68706073D01*
X165559648Y-68905536D01*
X165564604Y-68917499D01*
X165636097Y-69128108D01*
X165639449Y-69140617D01*
X165682839Y-69358755D01*
X165684529Y-69371594D01*
X165699288Y-69596765D01*
X165699500Y-69603240D01*
X165699500Y-80696759D01*
X165699288Y-80703234D01*
X165684529Y-80928405D01*
X165682839Y-80941244D01*
X165639449Y-81159382D01*
X165636097Y-81171891D01*
X165564604Y-81382500D01*
X165559648Y-81394463D01*
X165461284Y-81593926D01*
X165454809Y-81605142D01*
X165331242Y-81790072D01*
X165323359Y-81800345D01*
X165176717Y-81967560D01*
X165167560Y-81976717D01*
X165000345Y-82123359D01*
X164990072Y-82131242D01*
X164805142Y-82254809D01*
X164793926Y-82261284D01*
X164594463Y-82359648D01*
X164582500Y-82364604D01*
X164371891Y-82436097D01*
X164359382Y-82439449D01*
X164141244Y-82482839D01*
X164128405Y-82484529D01*
X163903234Y-82499288D01*
X163896759Y-82499500D01*
X104203241Y-82499500D01*
X104196766Y-82499288D01*
X103971594Y-82484529D01*
X103958755Y-82482839D01*
X103740617Y-82439449D01*
X103728108Y-82436097D01*
X103517499Y-82364604D01*
X103505536Y-82359648D01*
X103306073Y-82261284D01*
X103294857Y-82254809D01*
X103109927Y-82131242D01*
X103099654Y-82123359D01*
X102932439Y-81976717D01*
X102923282Y-81967560D01*
X102776640Y-81800345D01*
X102768757Y-81790072D01*
X102645190Y-81605142D01*
X102638715Y-81593926D01*
X102540351Y-81394463D01*
X102535395Y-81382500D01*
X102463902Y-81171891D01*
X102460550Y-81159382D01*
X102417160Y-80941244D01*
X102415470Y-80928405D01*
X102400712Y-80703234D01*
X102400500Y-80696759D01*
X102400500Y-75024000D01*
X107294500Y-75024000D01*
X107294500Y-79376000D01*
X107295372Y-79384108D01*
X107299197Y-79419685D01*
X107310404Y-79471199D01*
X107312889Y-79481371D01*
X107312889Y-79481372D01*
X107312890Y-79481373D01*
X107355900Y-79562085D01*
X107401655Y-79614889D01*
X107401667Y-79614901D01*
X107419247Y-79632844D01*
X107419249Y-79632846D01*
X107499058Y-79677488D01*
X107499062Y-79677490D01*
X107540294Y-79689597D01*
X107566102Y-79697175D01*
X107624000Y-79705500D01*
X107624001Y-79705500D01*
X132275995Y-79705500D01*
X132276000Y-79705500D01*
X132319684Y-79700803D01*
X132371195Y-79689597D01*
X132381373Y-79687110D01*
X132462085Y-79644100D01*
X132514889Y-79598345D01*
X132532843Y-79580754D01*
X132532844Y-79580751D01*
X132532846Y-79580750D01*
X132577488Y-79500941D01*
X132577490Y-79500937D01*
X132597173Y-79433904D01*
X132597175Y-79433898D01*
X132605500Y-79376000D01*
X132605500Y-78664615D01*
X132605292Y-78657332D01*
X132622527Y-78598624D01*
X132670977Y-78561259D01*
X132704251Y-78555500D01*
X135479770Y-78555500D01*
X135479777Y-78555500D01*
X135531666Y-78548841D01*
X135580042Y-78536217D01*
X135591893Y-78532347D01*
X135594771Y-78531408D01*
X135655956Y-78531319D01*
X135705508Y-78567211D01*
X135724500Y-78625375D01*
X135724500Y-79051678D01*
X135705593Y-79109869D01*
X135695505Y-79121680D01*
X135674501Y-79142684D01*
X135674496Y-79142690D01*
X135608609Y-79256809D01*
X135608608Y-79256814D01*
X135574500Y-79384108D01*
X135574500Y-79515892D01*
X135591879Y-79580752D01*
X135608609Y-79643190D01*
X135674496Y-79757309D01*
X135674498Y-79757311D01*
X135674500Y-79757314D01*
X135767686Y-79850500D01*
X135767688Y-79850501D01*
X135767690Y-79850503D01*
X135881810Y-79916390D01*
X135881808Y-79916390D01*
X135881812Y-79916391D01*
X135881814Y-79916392D01*
X136009108Y-79950500D01*
X136009110Y-79950500D01*
X136140890Y-79950500D01*
X136140892Y-79950500D01*
X136268186Y-79916392D01*
X136268188Y-79916390D01*
X136268190Y-79916390D01*
X136382309Y-79850503D01*
X136382309Y-79850502D01*
X136382314Y-79850500D01*
X136475500Y-79757314D01*
X136508127Y-79700803D01*
X136544637Y-79637567D01*
X136546730Y-79638775D01*
X136579623Y-79600234D01*
X136639113Y-79585928D01*
X136695650Y-79609321D01*
X136702098Y-79615341D01*
X136719247Y-79632844D01*
X136719249Y-79632846D01*
X136799058Y-79677488D01*
X136799062Y-79677490D01*
X136840294Y-79689597D01*
X136866102Y-79697175D01*
X136924000Y-79705500D01*
X136924001Y-79705500D01*
X161575995Y-79705500D01*
X161576000Y-79705500D01*
X161619684Y-79700803D01*
X161671195Y-79689597D01*
X161681373Y-79687110D01*
X161762085Y-79644100D01*
X161814889Y-79598345D01*
X161832843Y-79580754D01*
X161832844Y-79580751D01*
X161832846Y-79580750D01*
X161877488Y-79500941D01*
X161877490Y-79500937D01*
X161897173Y-79433904D01*
X161897175Y-79433898D01*
X161905500Y-79376000D01*
X161905500Y-75024000D01*
X161900803Y-74980316D01*
X161889597Y-74928805D01*
X161887110Y-74918627D01*
X161844100Y-74837915D01*
X161798345Y-74785111D01*
X161780754Y-74767157D01*
X161780753Y-74767156D01*
X161780752Y-74767155D01*
X161780750Y-74767153D01*
X161700941Y-74722511D01*
X161700937Y-74722509D01*
X161633904Y-74702826D01*
X161633895Y-74702824D01*
X161586780Y-74696050D01*
X161576000Y-74694500D01*
X152113427Y-74694500D01*
X152055236Y-74675593D01*
X152019272Y-74626093D01*
X152019272Y-74564907D01*
X152054638Y-74515846D01*
X152094326Y-74486553D01*
X152111430Y-74473930D01*
X152190955Y-74366179D01*
X152235186Y-74239774D01*
X152237999Y-74209772D01*
X152238000Y-74209770D01*
X152238000Y-73190230D01*
X152237999Y-73190226D01*
X152236839Y-73177855D01*
X152235186Y-73160226D01*
X152190955Y-73033821D01*
X152111430Y-72926070D01*
X152003679Y-72846545D01*
X152003676Y-72846544D01*
X152003675Y-72846543D01*
X151877277Y-72802315D01*
X151877276Y-72802314D01*
X151877274Y-72802314D01*
X151877271Y-72802313D01*
X151877268Y-72802313D01*
X151847273Y-72799500D01*
X151847264Y-72799500D01*
X151252736Y-72799500D01*
X151252726Y-72799500D01*
X151222731Y-72802313D01*
X151222722Y-72802315D01*
X151096324Y-72846543D01*
X151096321Y-72846544D01*
X151096321Y-72846545D01*
X150988570Y-72926070D01*
X150929510Y-73006093D01*
X150909043Y-73033824D01*
X150864815Y-73160222D01*
X150864813Y-73160231D01*
X150862000Y-73190226D01*
X150862000Y-74209773D01*
X150864813Y-74239768D01*
X150864815Y-74239777D01*
X150909043Y-74366175D01*
X150909044Y-74366176D01*
X150909045Y-74366179D01*
X150988570Y-74473930D01*
X150988573Y-74473932D01*
X150988575Y-74473934D01*
X151045362Y-74515846D01*
X151080954Y-74565614D01*
X151080496Y-74626797D01*
X151044162Y-74676026D01*
X150986573Y-74694500D01*
X136924000Y-74694500D01*
X136892797Y-74697855D01*
X136880314Y-74699197D01*
X136828800Y-74710404D01*
X136818628Y-74712889D01*
X136737914Y-74755900D01*
X136685113Y-74801653D01*
X136685098Y-74801667D01*
X136667155Y-74819247D01*
X136667153Y-74819249D01*
X136622511Y-74899058D01*
X136622509Y-74899062D01*
X136602826Y-74966095D01*
X136602824Y-74966104D01*
X136594500Y-75024000D01*
X136594500Y-75145500D01*
X136575593Y-75203691D01*
X136526093Y-75239655D01*
X136495500Y-75244500D01*
X135899500Y-75244500D01*
X135841309Y-75225593D01*
X135805345Y-75176093D01*
X135800500Y-75145500D01*
X135800500Y-73700833D01*
X135819407Y-73642642D01*
X135829490Y-73630835D01*
X135845747Y-73614579D01*
X135894259Y-73510545D01*
X135900500Y-73463139D01*
X135900499Y-72311862D01*
X135894259Y-72264455D01*
X135894259Y-72264453D01*
X135845748Y-72160423D01*
X135845747Y-72160422D01*
X135845747Y-72160421D01*
X135764579Y-72079253D01*
X135660545Y-72030741D01*
X135613139Y-72024500D01*
X135613137Y-72024500D01*
X135286866Y-72024500D01*
X135286854Y-72024501D01*
X135239455Y-72030740D01*
X135239453Y-72030740D01*
X135135423Y-72079251D01*
X135054253Y-72160421D01*
X135005741Y-72264455D01*
X134999500Y-72311862D01*
X134999500Y-73463134D01*
X134999501Y-73463145D01*
X135005740Y-73510544D01*
X135005740Y-73510546D01*
X135054251Y-73614576D01*
X135054252Y-73614577D01*
X135054253Y-73614579D01*
X135070505Y-73630831D01*
X135098281Y-73685346D01*
X135099500Y-73700833D01*
X135099500Y-75145500D01*
X135080593Y-75203691D01*
X135031093Y-75239655D01*
X135000500Y-75244500D01*
X133715189Y-75244500D01*
X133656998Y-75225593D01*
X133621034Y-75176093D01*
X133621034Y-75114907D01*
X133645185Y-75075497D01*
X133815552Y-74905129D01*
X133870069Y-74877351D01*
X133930501Y-74886922D01*
X133935039Y-74889386D01*
X133981814Y-74916392D01*
X134109108Y-74950500D01*
X134109110Y-74950500D01*
X134240890Y-74950500D01*
X134240892Y-74950500D01*
X134368186Y-74916392D01*
X134368188Y-74916390D01*
X134368190Y-74916390D01*
X134482309Y-74850503D01*
X134482309Y-74850502D01*
X134482314Y-74850500D01*
X134575500Y-74757314D01*
X134595595Y-74722509D01*
X134641390Y-74643190D01*
X134641390Y-74643188D01*
X134641392Y-74643186D01*
X134675500Y-74515892D01*
X134675500Y-74384108D01*
X134641392Y-74256814D01*
X134641390Y-74256811D01*
X134641390Y-74256809D01*
X134575503Y-74142690D01*
X134575498Y-74142684D01*
X134554495Y-74121680D01*
X134526719Y-74067163D01*
X134525500Y-74051678D01*
X134525500Y-73674709D01*
X134543404Y-73617924D01*
X134545742Y-73614583D01*
X134545747Y-73614579D01*
X134594259Y-73510545D01*
X134600500Y-73463139D01*
X134600499Y-72311862D01*
X134594259Y-72264455D01*
X134594259Y-72264453D01*
X134545748Y-72160423D01*
X134545747Y-72160422D01*
X134545747Y-72160421D01*
X134464579Y-72079253D01*
X134360545Y-72030741D01*
X134313139Y-72024500D01*
X134313137Y-72024500D01*
X133986866Y-72024500D01*
X133986854Y-72024501D01*
X133939455Y-72030740D01*
X133866837Y-72064602D01*
X133806108Y-72072058D01*
X133783160Y-72064602D01*
X133778135Y-72062259D01*
X133710545Y-72030741D01*
X133663139Y-72024500D01*
X133663137Y-72024500D01*
X133336866Y-72024500D01*
X133336854Y-72024501D01*
X133289455Y-72030740D01*
X133289453Y-72030740D01*
X133185423Y-72079251D01*
X133104253Y-72160421D01*
X133055741Y-72264455D01*
X133049500Y-72311862D01*
X133049500Y-73338809D01*
X133030593Y-73397000D01*
X133020504Y-73408813D01*
X131763814Y-74665504D01*
X131709297Y-74693281D01*
X131693810Y-74694500D01*
X129240190Y-74694500D01*
X129181999Y-74675593D01*
X129146035Y-74626093D01*
X129146035Y-74564907D01*
X129170186Y-74525496D01*
X132703686Y-70991996D01*
X132710803Y-70988369D01*
X132715499Y-70981907D01*
X132737547Y-70974743D01*
X132758203Y-70964219D01*
X132773690Y-70963000D01*
X132950501Y-70963000D01*
X133008692Y-70981907D01*
X133044656Y-71031407D01*
X133049501Y-71062000D01*
X133049501Y-71188145D01*
X133055740Y-71235544D01*
X133055740Y-71235546D01*
X133104251Y-71339576D01*
X133104252Y-71339577D01*
X133104253Y-71339579D01*
X133185421Y-71420747D01*
X133289455Y-71469259D01*
X133336861Y-71475500D01*
X133663138Y-71475499D01*
X133710545Y-71469259D01*
X133783160Y-71435398D01*
X133843890Y-71427941D01*
X133866835Y-71435395D01*
X133939455Y-71469259D01*
X133986861Y-71475500D01*
X134313138Y-71475499D01*
X134360545Y-71469259D01*
X134360546Y-71469259D01*
X134433162Y-71435397D01*
X134464579Y-71420747D01*
X134545747Y-71339579D01*
X134594259Y-71235545D01*
X134600500Y-71188139D01*
X134600499Y-70036862D01*
X134999500Y-70036862D01*
X134999500Y-71188134D01*
X134999501Y-71188145D01*
X135005740Y-71235544D01*
X135005740Y-71235546D01*
X135054251Y-71339576D01*
X135054252Y-71339577D01*
X135054253Y-71339579D01*
X135135421Y-71420747D01*
X135239455Y-71469259D01*
X135286861Y-71475500D01*
X135613138Y-71475499D01*
X135660545Y-71469259D01*
X135660546Y-71469259D01*
X135733162Y-71435397D01*
X135764579Y-71420747D01*
X135845747Y-71339579D01*
X135894259Y-71235545D01*
X135900500Y-71188139D01*
X135900500Y-71049500D01*
X135919407Y-70991309D01*
X135968907Y-70955345D01*
X135999500Y-70950500D01*
X136601679Y-70950500D01*
X136659870Y-70969407D01*
X136671676Y-70979490D01*
X136692686Y-71000500D01*
X136692688Y-71000501D01*
X136692690Y-71000503D01*
X136806810Y-71066390D01*
X136806808Y-71066390D01*
X136806812Y-71066391D01*
X136806814Y-71066392D01*
X136934108Y-71100500D01*
X136934110Y-71100500D01*
X137065890Y-71100500D01*
X137065892Y-71100500D01*
X137193186Y-71066392D01*
X137193188Y-71066390D01*
X137193190Y-71066390D01*
X137307309Y-71000503D01*
X137307309Y-71000502D01*
X137307314Y-71000500D01*
X137400500Y-70907314D01*
X137466392Y-70793186D01*
X137500500Y-70665892D01*
X137500500Y-70534108D01*
X137466392Y-70406814D01*
X137466390Y-70406811D01*
X137466390Y-70406809D01*
X137400503Y-70292690D01*
X137400501Y-70292688D01*
X137400500Y-70292686D01*
X137307314Y-70199500D01*
X137307311Y-70199498D01*
X137307309Y-70199496D01*
X137193189Y-70133609D01*
X137193191Y-70133609D01*
X137143799Y-70120375D01*
X137065892Y-70099500D01*
X136934108Y-70099500D01*
X136856200Y-70120375D01*
X136806809Y-70133609D01*
X136692690Y-70199496D01*
X136692689Y-70199497D01*
X136692686Y-70199499D01*
X136692686Y-70199500D01*
X136671680Y-70220505D01*
X136617166Y-70248281D01*
X136601679Y-70249500D01*
X135999499Y-70249500D01*
X135941308Y-70230593D01*
X135905344Y-70181093D01*
X135900499Y-70150500D01*
X135900499Y-70036865D01*
X135900498Y-70036854D01*
X135894259Y-69989455D01*
X135894259Y-69989453D01*
X135845748Y-69885423D01*
X135845747Y-69885422D01*
X135845747Y-69885421D01*
X135764579Y-69804253D01*
X135660545Y-69755741D01*
X135613139Y-69749500D01*
X135613137Y-69749500D01*
X135286866Y-69749500D01*
X135286854Y-69749501D01*
X135239455Y-69755740D01*
X135239453Y-69755740D01*
X135135423Y-69804251D01*
X135054253Y-69885421D01*
X135005741Y-69989455D01*
X134999500Y-70036862D01*
X134600499Y-70036862D01*
X134594259Y-69989455D01*
X134594259Y-69989453D01*
X134545748Y-69885423D01*
X134545747Y-69885422D01*
X134545747Y-69885421D01*
X134464579Y-69804253D01*
X134360545Y-69755741D01*
X134313139Y-69749500D01*
X134313137Y-69749500D01*
X133986866Y-69749500D01*
X133986854Y-69749501D01*
X133939455Y-69755740D01*
X133866837Y-69789602D01*
X133806108Y-69797058D01*
X133783160Y-69789602D01*
X133778135Y-69787259D01*
X133710545Y-69755741D01*
X133663139Y-69749500D01*
X133663137Y-69749500D01*
X133336866Y-69749500D01*
X133336854Y-69749501D01*
X133289455Y-69755740D01*
X133289453Y-69755740D01*
X133185423Y-69804251D01*
X133104253Y-69885421D01*
X133055741Y-69989455D01*
X133049500Y-70036862D01*
X133049500Y-70163000D01*
X133030593Y-70221191D01*
X132981093Y-70257155D01*
X132950500Y-70262000D01*
X132541356Y-70262000D01*
X132486797Y-70276618D01*
X132452207Y-70285887D01*
X132372291Y-70332027D01*
X128432814Y-74271504D01*
X128378297Y-74299281D01*
X128362810Y-74300500D01*
X126679157Y-74300500D01*
X126620966Y-74281593D01*
X126585002Y-74232093D01*
X126585002Y-74170907D01*
X126585713Y-74168802D01*
X126586952Y-74165259D01*
X126597646Y-74134699D01*
X126600499Y-74104273D01*
X126600500Y-74104273D01*
X126600500Y-73470727D01*
X126600499Y-73470725D01*
X126599788Y-73463139D01*
X126597646Y-73440301D01*
X126552793Y-73312118D01*
X126534342Y-73287118D01*
X126472154Y-73202855D01*
X126472152Y-73202853D01*
X126472150Y-73202850D01*
X126472146Y-73202847D01*
X126472144Y-73202845D01*
X126362883Y-73122207D01*
X126234703Y-73077355D01*
X126234694Y-73077353D01*
X126204274Y-73074500D01*
X126204266Y-73074500D01*
X126149500Y-73074500D01*
X126091309Y-73055593D01*
X126055345Y-73006093D01*
X126050500Y-72975500D01*
X126050500Y-71924500D01*
X126069407Y-71866309D01*
X126118907Y-71830345D01*
X126149500Y-71825500D01*
X126204273Y-71825500D01*
X126204273Y-71825499D01*
X126234699Y-71822646D01*
X126362882Y-71777793D01*
X126472150Y-71697150D01*
X126552793Y-71587882D01*
X126597646Y-71459699D01*
X126598488Y-71450712D01*
X126599470Y-71440255D01*
X126623728Y-71384085D01*
X126676370Y-71352900D01*
X126698037Y-71350500D01*
X126901679Y-71350500D01*
X126959870Y-71369407D01*
X126971676Y-71379490D01*
X126992686Y-71400500D01*
X126992688Y-71400501D01*
X126992690Y-71400503D01*
X127106810Y-71466390D01*
X127106808Y-71466390D01*
X127106812Y-71466391D01*
X127106814Y-71466392D01*
X127234108Y-71500500D01*
X127234110Y-71500500D01*
X127365890Y-71500500D01*
X127365892Y-71500500D01*
X127493186Y-71466392D01*
X127493188Y-71466390D01*
X127493190Y-71466390D01*
X127607309Y-71400503D01*
X127607309Y-71400502D01*
X127607314Y-71400500D01*
X127700500Y-71307314D01*
X127700503Y-71307309D01*
X127766390Y-71193190D01*
X127766390Y-71193188D01*
X127766392Y-71193186D01*
X127800500Y-71065892D01*
X127800500Y-70934108D01*
X127766392Y-70806814D01*
X127766390Y-70806811D01*
X127766390Y-70806809D01*
X127700503Y-70692690D01*
X127700501Y-70692688D01*
X127700500Y-70692686D01*
X127607314Y-70599500D01*
X127607311Y-70599498D01*
X127607309Y-70599496D01*
X127493189Y-70533609D01*
X127493191Y-70533609D01*
X127443799Y-70520375D01*
X127365892Y-70499500D01*
X127234108Y-70499500D01*
X127156200Y-70520375D01*
X127106809Y-70533609D01*
X126992690Y-70599496D01*
X126992689Y-70599497D01*
X126992686Y-70599499D01*
X126992686Y-70599500D01*
X126971680Y-70620505D01*
X126917166Y-70648281D01*
X126901679Y-70649500D01*
X126611909Y-70649500D01*
X126553718Y-70630593D01*
X126532254Y-70609288D01*
X126472153Y-70527854D01*
X126472152Y-70527853D01*
X126472150Y-70527850D01*
X126472146Y-70527847D01*
X126472144Y-70527845D01*
X126362883Y-70447207D01*
X126234703Y-70402355D01*
X126234694Y-70402353D01*
X126204274Y-70399500D01*
X126204266Y-70399500D01*
X125195734Y-70399500D01*
X125195725Y-70399500D01*
X125165305Y-70402353D01*
X125165296Y-70402355D01*
X125037116Y-70447207D01*
X124927855Y-70527845D01*
X124927845Y-70527855D01*
X124847207Y-70637116D01*
X124802355Y-70765296D01*
X124802353Y-70765305D01*
X124799500Y-70795725D01*
X124799500Y-71429274D01*
X124802353Y-71459694D01*
X124802355Y-71459703D01*
X124847207Y-71587883D01*
X124927845Y-71697144D01*
X124927847Y-71697146D01*
X124927850Y-71697150D01*
X124927853Y-71697152D01*
X124927855Y-71697154D01*
X125037116Y-71777792D01*
X125037117Y-71777792D01*
X125037118Y-71777793D01*
X125165301Y-71822646D01*
X125195725Y-71825499D01*
X125195727Y-71825500D01*
X125195734Y-71825500D01*
X125250500Y-71825500D01*
X125308691Y-71844407D01*
X125344655Y-71893907D01*
X125349500Y-71924500D01*
X125349500Y-72975500D01*
X125330593Y-73033691D01*
X125281093Y-73069655D01*
X125250500Y-73074500D01*
X125195725Y-73074500D01*
X125165305Y-73077353D01*
X125165296Y-73077355D01*
X125037116Y-73122207D01*
X124927855Y-73202845D01*
X124927845Y-73202855D01*
X124847207Y-73312116D01*
X124802355Y-73440296D01*
X124802353Y-73440305D01*
X124799500Y-73470725D01*
X124799500Y-74104274D01*
X124802353Y-74134694D01*
X124802355Y-74134702D01*
X124814287Y-74168802D01*
X124815660Y-74229972D01*
X124780817Y-74280267D01*
X124723065Y-74300475D01*
X124720843Y-74300500D01*
X124037189Y-74300500D01*
X123978998Y-74281593D01*
X123967185Y-74271504D01*
X123696181Y-74000500D01*
X123165212Y-73469530D01*
X123085288Y-73423386D01*
X122996144Y-73399500D01*
X122996142Y-73399500D01*
X122587361Y-73399500D01*
X122529170Y-73380593D01*
X122493917Y-73333198D01*
X122477793Y-73287118D01*
X122477791Y-73287116D01*
X122477791Y-73287114D01*
X122397154Y-73177855D01*
X122397152Y-73177853D01*
X122397150Y-73177850D01*
X122397146Y-73177847D01*
X122397144Y-73177845D01*
X122287883Y-73097207D01*
X122159703Y-73052355D01*
X122159694Y-73052353D01*
X122129274Y-73049500D01*
X122129266Y-73049500D01*
X121070734Y-73049500D01*
X121070725Y-73049500D01*
X121040305Y-73052353D01*
X121040296Y-73052355D01*
X120912116Y-73097207D01*
X120802855Y-73177845D01*
X120802845Y-73177855D01*
X120722207Y-73287116D01*
X120677355Y-73415296D01*
X120677353Y-73415305D01*
X120674500Y-73445725D01*
X120674500Y-74054274D01*
X120677353Y-74084694D01*
X120677355Y-74084703D01*
X120722207Y-74212883D01*
X120802845Y-74322144D01*
X120802847Y-74322146D01*
X120802850Y-74322150D01*
X120802853Y-74322152D01*
X120802855Y-74322154D01*
X120912116Y-74402792D01*
X120912117Y-74402792D01*
X120912118Y-74402793D01*
X121040301Y-74447646D01*
X121070725Y-74450499D01*
X121070727Y-74450500D01*
X121070734Y-74450500D01*
X122129273Y-74450500D01*
X122129273Y-74450499D01*
X122159699Y-74447646D01*
X122287882Y-74402793D01*
X122397150Y-74322150D01*
X122477793Y-74212882D01*
X122493917Y-74166801D01*
X122511796Y-74143319D01*
X122529170Y-74119407D01*
X122530277Y-74119047D01*
X122530982Y-74118122D01*
X122587361Y-74100500D01*
X122763810Y-74100500D01*
X122822001Y-74119407D01*
X122833813Y-74129496D01*
X123229814Y-74525496D01*
X123257592Y-74580013D01*
X123248021Y-74640445D01*
X123204756Y-74683710D01*
X123159811Y-74694500D01*
X116986997Y-74694500D01*
X116972580Y-74696050D01*
X116952218Y-74691772D01*
X116931407Y-74691772D01*
X116922941Y-74685621D01*
X116912702Y-74683470D01*
X116898742Y-74668039D01*
X116881907Y-74655808D01*
X116878673Y-74645856D01*
X116871654Y-74638097D01*
X116863000Y-74597617D01*
X116863000Y-74499500D01*
X116881907Y-74441309D01*
X116931407Y-74405345D01*
X116962000Y-74400500D01*
X117034770Y-74400500D01*
X117034772Y-74400499D01*
X117064774Y-74397686D01*
X117191179Y-74353455D01*
X117298930Y-74273930D01*
X117378455Y-74166179D01*
X117422686Y-74039774D01*
X117425499Y-74009772D01*
X117425500Y-74009770D01*
X117425500Y-72990230D01*
X117425499Y-72990226D01*
X117422686Y-72960231D01*
X117422686Y-72960226D01*
X117378455Y-72833821D01*
X117298930Y-72726070D01*
X117191179Y-72646545D01*
X117191176Y-72646544D01*
X117191175Y-72646543D01*
X117064777Y-72602315D01*
X117064776Y-72602314D01*
X117064774Y-72602314D01*
X117064771Y-72602313D01*
X117064768Y-72602313D01*
X117034773Y-72599500D01*
X117034764Y-72599500D01*
X116440236Y-72599500D01*
X116440226Y-72599500D01*
X116410231Y-72602313D01*
X116410222Y-72602315D01*
X116283824Y-72646543D01*
X116176071Y-72726069D01*
X116176069Y-72726071D01*
X116096543Y-72833824D01*
X116052315Y-72960222D01*
X116052313Y-72960231D01*
X116049500Y-72990226D01*
X116049500Y-74009773D01*
X116052313Y-74039768D01*
X116052314Y-74039774D01*
X116096545Y-74166179D01*
X116128713Y-74209764D01*
X116142655Y-74228655D01*
X116161997Y-74286702D01*
X116162000Y-74287443D01*
X116162000Y-74598076D01*
X116143093Y-74656267D01*
X116093593Y-74692231D01*
X116048916Y-74696069D01*
X116040159Y-74694810D01*
X116038000Y-74694500D01*
X107624000Y-74694500D01*
X107592797Y-74697855D01*
X107580314Y-74699197D01*
X107528800Y-74710404D01*
X107518628Y-74712889D01*
X107437914Y-74755900D01*
X107385113Y-74801653D01*
X107385098Y-74801667D01*
X107367155Y-74819247D01*
X107367153Y-74819249D01*
X107322511Y-74899058D01*
X107322509Y-74899062D01*
X107302826Y-74966095D01*
X107302824Y-74966104D01*
X107297926Y-75000173D01*
X107294500Y-75024000D01*
X102400500Y-75024000D01*
X102400500Y-69603240D01*
X102400712Y-69596765D01*
X102410808Y-69442727D01*
X102415471Y-69371585D01*
X102417158Y-69358764D01*
X102460552Y-69140609D01*
X102463899Y-69128117D01*
X102535397Y-68917493D01*
X102540348Y-68905543D01*
X102638717Y-68706067D01*
X102645186Y-68694862D01*
X102768760Y-68509922D01*
X102776635Y-68499659D01*
X102923291Y-68332429D01*
X102932429Y-68323291D01*
X103099659Y-68176635D01*
X103109922Y-68168760D01*
X103294862Y-68045186D01*
X103306067Y-68038717D01*
X103505543Y-67940348D01*
X103517493Y-67935397D01*
X103728117Y-67863899D01*
X103740609Y-67860552D01*
X103958764Y-67817158D01*
X103971585Y-67815471D01*
X104196766Y-67800712D01*
X104203241Y-67800500D01*
X104265892Y-67800500D01*
X163834108Y-67800500D01*
X163896759Y-67800500D01*
X163903234Y-67800712D01*
G37*
%TD.AperFunction*%
%TD*%
%TA.AperFunction,Conductor*%
%TO.N,/SRC*%
G36*
X136734191Y-75468907D02*
G01*
X136770155Y-75518407D01*
X136775000Y-75549000D01*
X136775000Y-78251000D01*
X136756093Y-78309191D01*
X136706593Y-78345155D01*
X136676000Y-78350000D01*
X136670223Y-78350000D01*
X136612032Y-78331093D01*
X136576068Y-78281593D01*
X136573126Y-78231683D01*
X136575499Y-78219753D01*
X136575500Y-78219746D01*
X136575500Y-77780253D01*
X136575498Y-77780241D01*
X136572711Y-77766231D01*
X136563867Y-77721769D01*
X136519552Y-77655448D01*
X136519548Y-77655445D01*
X136453233Y-77611134D01*
X136453231Y-77611133D01*
X136453228Y-77611132D01*
X136453227Y-77611132D01*
X136394758Y-77599501D01*
X136394748Y-77599500D01*
X135755252Y-77599500D01*
X135755251Y-77599500D01*
X135755241Y-77599501D01*
X135696772Y-77611132D01*
X135696766Y-77611134D01*
X135630451Y-77655445D01*
X135630445Y-77655451D01*
X135586134Y-77721766D01*
X135586132Y-77721772D01*
X135574501Y-77780241D01*
X135574500Y-77780253D01*
X135574500Y-78219753D01*
X135576874Y-78231683D01*
X135569685Y-78292444D01*
X135528153Y-78337376D01*
X135479777Y-78350000D01*
X132374000Y-78350000D01*
X132315809Y-78331093D01*
X132279845Y-78281593D01*
X132275000Y-78251000D01*
X132275000Y-76475900D01*
X132293907Y-76417709D01*
X132343407Y-76381745D01*
X132404593Y-76381745D01*
X132429003Y-76393585D01*
X132430446Y-76394549D01*
X132430448Y-76394552D01*
X132496769Y-76438867D01*
X132541231Y-76447711D01*
X132555241Y-76450498D01*
X132555246Y-76450498D01*
X132555252Y-76450500D01*
X132555253Y-76450500D01*
X133194747Y-76450500D01*
X133194748Y-76450500D01*
X133253231Y-76438867D01*
X133319552Y-76394552D01*
X133319922Y-76393998D01*
X133320785Y-76393317D01*
X133326446Y-76387657D01*
X133327115Y-76388326D01*
X133367971Y-76356119D01*
X133402237Y-76350000D01*
X133574999Y-76350000D01*
X133575000Y-76350000D01*
X133575000Y-75549000D01*
X133593907Y-75490809D01*
X133643407Y-75454845D01*
X133674000Y-75450000D01*
X136676000Y-75450000D01*
X136734191Y-75468907D01*
G37*
%TD.AperFunction*%
%TD*%
%TA.AperFunction,Conductor*%
%TO.N,/+12VOUT*%
G36*
X151142539Y-74919685D02*
G01*
X151188294Y-74972489D01*
X151199500Y-75024000D01*
X151199500Y-76424274D01*
X151179815Y-76491313D01*
X151127011Y-76537068D01*
X151116456Y-76541315D01*
X151099618Y-76547206D01*
X150990350Y-76627850D01*
X150909707Y-76737117D01*
X150909706Y-76737119D01*
X150864853Y-76865298D01*
X150864853Y-76865300D01*
X150862000Y-76895730D01*
X150862000Y-77904269D01*
X150864853Y-77934699D01*
X150864853Y-77934701D01*
X150909706Y-78062880D01*
X150909707Y-78062882D01*
X150990350Y-78172150D01*
X151099618Y-78252793D01*
X151142345Y-78267744D01*
X151227799Y-78297646D01*
X151258230Y-78300500D01*
X151258234Y-78300500D01*
X151891770Y-78300500D01*
X151922199Y-78297646D01*
X151922201Y-78297646D01*
X151986290Y-78275219D01*
X152050382Y-78252793D01*
X152159650Y-78172150D01*
X152240293Y-78062882D01*
X152262719Y-77998790D01*
X152285146Y-77934701D01*
X152285146Y-77934699D01*
X152288000Y-77904269D01*
X152288000Y-76895730D01*
X152285146Y-76865300D01*
X152285146Y-76865298D01*
X152240293Y-76737119D01*
X152240292Y-76737117D01*
X152159650Y-76627850D01*
X152050382Y-76547207D01*
X152033544Y-76541315D01*
X151983544Y-76523819D01*
X151926768Y-76483097D01*
X151901022Y-76418144D01*
X151900500Y-76406778D01*
X151900500Y-75024000D01*
X151920185Y-74956961D01*
X151972989Y-74911206D01*
X152024500Y-74900000D01*
X161576000Y-74900000D01*
X161643039Y-74919685D01*
X161688794Y-74972489D01*
X161700000Y-75024000D01*
X161700000Y-79376000D01*
X161680315Y-79443039D01*
X161627511Y-79488794D01*
X161576000Y-79500000D01*
X136924000Y-79500000D01*
X136856961Y-79480315D01*
X136811206Y-79427511D01*
X136800000Y-79376000D01*
X136800000Y-78594484D01*
X136819685Y-78527445D01*
X136851114Y-78494166D01*
X136876883Y-78475444D01*
X136904628Y-78451203D01*
X136951536Y-78372693D01*
X136970443Y-78314502D01*
X136976599Y-78275629D01*
X136980500Y-78251004D01*
X136980500Y-75549006D01*
X136980500Y-75549000D01*
X136977970Y-75516856D01*
X136973125Y-75486263D01*
X136972352Y-75481713D01*
X136936408Y-75397617D01*
X136900444Y-75348117D01*
X136876203Y-75320372D01*
X136876202Y-75320371D01*
X136876200Y-75320369D01*
X136860397Y-75310927D01*
X136852874Y-75302797D01*
X136842797Y-75298195D01*
X136829564Y-75277604D01*
X136812945Y-75259643D01*
X136810024Y-75247200D01*
X136805023Y-75239417D01*
X136800000Y-75204482D01*
X136800000Y-75024000D01*
X136819685Y-74956961D01*
X136872489Y-74911206D01*
X136924000Y-74900000D01*
X151075500Y-74900000D01*
X151142539Y-74919685D01*
G37*
%TD.AperFunction*%
%TD*%
M02*
