%TF.GenerationSoftware,KiCad,Pcbnew,9.0.0*%
%TF.CreationDate,2025-05-05T10:21:01+02:00*%
%TF.ProjectId,LM4502,4c4d3435-3032-42e6-9b69-6361645f7063,rev?*%
%TF.SameCoordinates,Original*%
%TF.FileFunction,Legend,Top*%
%TF.FilePolarity,Positive*%
%FSLAX46Y46*%
G04 Gerber Fmt 4.6, Leading zero omitted, Abs format (unit mm)*
G04 Created by KiCad (PCBNEW 9.0.0) date 2025-05-05 10:21:01*
%MOMM*%
%LPD*%
G01*
G04 APERTURE LIST*
%ADD10C,0.300000*%
%ADD11C,0.200000*%
%ADD12C,0.150000*%
%ADD13C,0.120000*%
%ADD14C,0.100000*%
G04 APERTURE END LIST*
D10*
X156740225Y-69800828D02*
X155883082Y-69800828D01*
X156311653Y-69800828D02*
X156311653Y-68300828D01*
X156311653Y-68300828D02*
X156168796Y-68515114D01*
X156168796Y-68515114D02*
X156025939Y-68657971D01*
X156025939Y-68657971D02*
X155883082Y-68729400D01*
X157311653Y-68443685D02*
X157383081Y-68372257D01*
X157383081Y-68372257D02*
X157525939Y-68300828D01*
X157525939Y-68300828D02*
X157883081Y-68300828D01*
X157883081Y-68300828D02*
X158025939Y-68372257D01*
X158025939Y-68372257D02*
X158097367Y-68443685D01*
X158097367Y-68443685D02*
X158168796Y-68586542D01*
X158168796Y-68586542D02*
X158168796Y-68729400D01*
X158168796Y-68729400D02*
X158097367Y-68943685D01*
X158097367Y-68943685D02*
X157240224Y-69800828D01*
X157240224Y-69800828D02*
X158168796Y-69800828D01*
X158597367Y-68300828D02*
X159097367Y-69800828D01*
X159097367Y-69800828D02*
X159597367Y-68300828D01*
X161525938Y-68300828D02*
X161811652Y-68300828D01*
X161811652Y-68300828D02*
X161954509Y-68372257D01*
X161954509Y-68372257D02*
X162097366Y-68515114D01*
X162097366Y-68515114D02*
X162168795Y-68800828D01*
X162168795Y-68800828D02*
X162168795Y-69300828D01*
X162168795Y-69300828D02*
X162097366Y-69586542D01*
X162097366Y-69586542D02*
X161954509Y-69729400D01*
X161954509Y-69729400D02*
X161811652Y-69800828D01*
X161811652Y-69800828D02*
X161525938Y-69800828D01*
X161525938Y-69800828D02*
X161383081Y-69729400D01*
X161383081Y-69729400D02*
X161240223Y-69586542D01*
X161240223Y-69586542D02*
X161168795Y-69300828D01*
X161168795Y-69300828D02*
X161168795Y-68800828D01*
X161168795Y-68800828D02*
X161240223Y-68515114D01*
X161240223Y-68515114D02*
X161383081Y-68372257D01*
X161383081Y-68372257D02*
X161525938Y-68300828D01*
X162811652Y-68300828D02*
X162811652Y-69515114D01*
X162811652Y-69515114D02*
X162883081Y-69657971D01*
X162883081Y-69657971D02*
X162954510Y-69729400D01*
X162954510Y-69729400D02*
X163097367Y-69800828D01*
X163097367Y-69800828D02*
X163383081Y-69800828D01*
X163383081Y-69800828D02*
X163525938Y-69729400D01*
X163525938Y-69729400D02*
X163597367Y-69657971D01*
X163597367Y-69657971D02*
X163668795Y-69515114D01*
X163668795Y-69515114D02*
X163668795Y-68300828D01*
X164168796Y-68300828D02*
X165025939Y-68300828D01*
X164597367Y-69800828D02*
X164597367Y-68300828D01*
G36*
X158011153Y-82014613D02*
G01*
X156240725Y-82014613D01*
X156240725Y-81100136D01*
X156407392Y-81100136D01*
X156407392Y-81158664D01*
X156429790Y-81212736D01*
X156471174Y-81254120D01*
X156525246Y-81276518D01*
X156554510Y-81279400D01*
X156975939Y-81279400D01*
X156975939Y-81700828D01*
X156978821Y-81730092D01*
X157001219Y-81784164D01*
X157042603Y-81825548D01*
X157096675Y-81847946D01*
X157155203Y-81847946D01*
X157209275Y-81825548D01*
X157250659Y-81784164D01*
X157273057Y-81730092D01*
X157275939Y-81700828D01*
X157275939Y-81279400D01*
X157697368Y-81279400D01*
X157726632Y-81276518D01*
X157780704Y-81254120D01*
X157822088Y-81212736D01*
X157844486Y-81158664D01*
X157844486Y-81100136D01*
X157822088Y-81046064D01*
X157780704Y-81004680D01*
X157726632Y-80982282D01*
X157697368Y-80979400D01*
X157275939Y-80979400D01*
X157275939Y-80557971D01*
X157273057Y-80528707D01*
X157250659Y-80474635D01*
X157209275Y-80433251D01*
X157155203Y-80410853D01*
X157096675Y-80410853D01*
X157042603Y-80433251D01*
X157001219Y-80474635D01*
X156978821Y-80528707D01*
X156975939Y-80557971D01*
X156975939Y-80979400D01*
X156554510Y-80979400D01*
X156525246Y-80982282D01*
X156471174Y-81004680D01*
X156429790Y-81046064D01*
X156407392Y-81100136D01*
X156240725Y-81100136D01*
X156240725Y-80244186D01*
X158011153Y-80244186D01*
X158011153Y-82014613D01*
G37*
D11*
X141945863Y-70857275D02*
X141469673Y-70857275D01*
X141469673Y-70857275D02*
X141469673Y-69857275D01*
X142279197Y-70857275D02*
X142279197Y-69857275D01*
X142279197Y-69857275D02*
X142612530Y-70571560D01*
X142612530Y-70571560D02*
X142945863Y-69857275D01*
X142945863Y-69857275D02*
X142945863Y-70857275D01*
X143326816Y-69857275D02*
X143993482Y-69857275D01*
X143993482Y-69857275D02*
X143564911Y-70857275D01*
X144803006Y-70190608D02*
X144803006Y-70857275D01*
X144564911Y-69809656D02*
X144326816Y-70523941D01*
X144326816Y-70523941D02*
X144945863Y-70523941D01*
X145803006Y-69857275D02*
X145326816Y-69857275D01*
X145326816Y-69857275D02*
X145279197Y-70333465D01*
X145279197Y-70333465D02*
X145326816Y-70285846D01*
X145326816Y-70285846D02*
X145422054Y-70238227D01*
X145422054Y-70238227D02*
X145660149Y-70238227D01*
X145660149Y-70238227D02*
X145755387Y-70285846D01*
X145755387Y-70285846D02*
X145803006Y-70333465D01*
X145803006Y-70333465D02*
X145850625Y-70428703D01*
X145850625Y-70428703D02*
X145850625Y-70666798D01*
X145850625Y-70666798D02*
X145803006Y-70762036D01*
X145803006Y-70762036D02*
X145755387Y-70809656D01*
X145755387Y-70809656D02*
X145660149Y-70857275D01*
X145660149Y-70857275D02*
X145422054Y-70857275D01*
X145422054Y-70857275D02*
X145326816Y-70809656D01*
X145326816Y-70809656D02*
X145279197Y-70762036D01*
X146469673Y-69857275D02*
X146564911Y-69857275D01*
X146564911Y-69857275D02*
X146660149Y-69904894D01*
X146660149Y-69904894D02*
X146707768Y-69952513D01*
X146707768Y-69952513D02*
X146755387Y-70047751D01*
X146755387Y-70047751D02*
X146803006Y-70238227D01*
X146803006Y-70238227D02*
X146803006Y-70476322D01*
X146803006Y-70476322D02*
X146755387Y-70666798D01*
X146755387Y-70666798D02*
X146707768Y-70762036D01*
X146707768Y-70762036D02*
X146660149Y-70809656D01*
X146660149Y-70809656D02*
X146564911Y-70857275D01*
X146564911Y-70857275D02*
X146469673Y-70857275D01*
X146469673Y-70857275D02*
X146374435Y-70809656D01*
X146374435Y-70809656D02*
X146326816Y-70762036D01*
X146326816Y-70762036D02*
X146279197Y-70666798D01*
X146279197Y-70666798D02*
X146231578Y-70476322D01*
X146231578Y-70476322D02*
X146231578Y-70238227D01*
X146231578Y-70238227D02*
X146279197Y-70047751D01*
X146279197Y-70047751D02*
X146326816Y-69952513D01*
X146326816Y-69952513D02*
X146374435Y-69904894D01*
X146374435Y-69904894D02*
X146469673Y-69857275D01*
X147183959Y-69952513D02*
X147231578Y-69904894D01*
X147231578Y-69904894D02*
X147326816Y-69857275D01*
X147326816Y-69857275D02*
X147564911Y-69857275D01*
X147564911Y-69857275D02*
X147660149Y-69904894D01*
X147660149Y-69904894D02*
X147707768Y-69952513D01*
X147707768Y-69952513D02*
X147755387Y-70047751D01*
X147755387Y-70047751D02*
X147755387Y-70142989D01*
X147755387Y-70142989D02*
X147707768Y-70285846D01*
X147707768Y-70285846D02*
X147136340Y-70857275D01*
X147136340Y-70857275D02*
X147755387Y-70857275D01*
X141898244Y-71800552D02*
X141898244Y-72467219D01*
X141660149Y-71419600D02*
X141422054Y-72133885D01*
X141422054Y-72133885D02*
X142041101Y-72133885D01*
X142422054Y-72371980D02*
X142469673Y-72419600D01*
X142469673Y-72419600D02*
X142422054Y-72467219D01*
X142422054Y-72467219D02*
X142374435Y-72419600D01*
X142374435Y-72419600D02*
X142422054Y-72371980D01*
X142422054Y-72371980D02*
X142422054Y-72467219D01*
X142850625Y-71562457D02*
X142898244Y-71514838D01*
X142898244Y-71514838D02*
X142993482Y-71467219D01*
X142993482Y-71467219D02*
X143231577Y-71467219D01*
X143231577Y-71467219D02*
X143326815Y-71514838D01*
X143326815Y-71514838D02*
X143374434Y-71562457D01*
X143374434Y-71562457D02*
X143422053Y-71657695D01*
X143422053Y-71657695D02*
X143422053Y-71752933D01*
X143422053Y-71752933D02*
X143374434Y-71895790D01*
X143374434Y-71895790D02*
X142803006Y-72467219D01*
X142803006Y-72467219D02*
X143422053Y-72467219D01*
X144041101Y-71467219D02*
X144136339Y-71467219D01*
X144136339Y-71467219D02*
X144231577Y-71514838D01*
X144231577Y-71514838D02*
X144279196Y-71562457D01*
X144279196Y-71562457D02*
X144326815Y-71657695D01*
X144326815Y-71657695D02*
X144374434Y-71848171D01*
X144374434Y-71848171D02*
X144374434Y-72086266D01*
X144374434Y-72086266D02*
X144326815Y-72276742D01*
X144326815Y-72276742D02*
X144279196Y-72371980D01*
X144279196Y-72371980D02*
X144231577Y-72419600D01*
X144231577Y-72419600D02*
X144136339Y-72467219D01*
X144136339Y-72467219D02*
X144041101Y-72467219D01*
X144041101Y-72467219D02*
X143945863Y-72419600D01*
X143945863Y-72419600D02*
X143898244Y-72371980D01*
X143898244Y-72371980D02*
X143850625Y-72276742D01*
X143850625Y-72276742D02*
X143803006Y-72086266D01*
X143803006Y-72086266D02*
X143803006Y-71848171D01*
X143803006Y-71848171D02*
X143850625Y-71657695D01*
X143850625Y-71657695D02*
X143898244Y-71562457D01*
X143898244Y-71562457D02*
X143945863Y-71514838D01*
X143945863Y-71514838D02*
X144041101Y-71467219D01*
X144755387Y-71562457D02*
X144803006Y-71514838D01*
X144803006Y-71514838D02*
X144898244Y-71467219D01*
X144898244Y-71467219D02*
X145136339Y-71467219D01*
X145136339Y-71467219D02*
X145231577Y-71514838D01*
X145231577Y-71514838D02*
X145279196Y-71562457D01*
X145279196Y-71562457D02*
X145326815Y-71657695D01*
X145326815Y-71657695D02*
X145326815Y-71752933D01*
X145326815Y-71752933D02*
X145279196Y-71895790D01*
X145279196Y-71895790D02*
X144707768Y-72467219D01*
X144707768Y-72467219D02*
X145326815Y-72467219D01*
X146231577Y-71467219D02*
X145755387Y-71467219D01*
X145755387Y-71467219D02*
X145707768Y-71943409D01*
X145707768Y-71943409D02*
X145755387Y-71895790D01*
X145755387Y-71895790D02*
X145850625Y-71848171D01*
X145850625Y-71848171D02*
X146088720Y-71848171D01*
X146088720Y-71848171D02*
X146183958Y-71895790D01*
X146183958Y-71895790D02*
X146231577Y-71943409D01*
X146231577Y-71943409D02*
X146279196Y-72038647D01*
X146279196Y-72038647D02*
X146279196Y-72276742D01*
X146279196Y-72276742D02*
X146231577Y-72371980D01*
X146231577Y-72371980D02*
X146183958Y-72419600D01*
X146183958Y-72419600D02*
X146088720Y-72467219D01*
X146088720Y-72467219D02*
X145850625Y-72467219D01*
X145850625Y-72467219D02*
X145755387Y-72419600D01*
X145755387Y-72419600D02*
X145707768Y-72371980D01*
D10*
X104540225Y-69700828D02*
X103683082Y-69700828D01*
X104111653Y-69700828D02*
X104111653Y-68200828D01*
X104111653Y-68200828D02*
X103968796Y-68415114D01*
X103968796Y-68415114D02*
X103825939Y-68557971D01*
X103825939Y-68557971D02*
X103683082Y-68629400D01*
X105111653Y-68343685D02*
X105183081Y-68272257D01*
X105183081Y-68272257D02*
X105325939Y-68200828D01*
X105325939Y-68200828D02*
X105683081Y-68200828D01*
X105683081Y-68200828D02*
X105825939Y-68272257D01*
X105825939Y-68272257D02*
X105897367Y-68343685D01*
X105897367Y-68343685D02*
X105968796Y-68486542D01*
X105968796Y-68486542D02*
X105968796Y-68629400D01*
X105968796Y-68629400D02*
X105897367Y-68843685D01*
X105897367Y-68843685D02*
X105040224Y-69700828D01*
X105040224Y-69700828D02*
X105968796Y-69700828D01*
X106397367Y-68200828D02*
X106897367Y-69700828D01*
X106897367Y-69700828D02*
X107397367Y-68200828D01*
X109040223Y-69700828D02*
X109040223Y-68200828D01*
X109754509Y-69700828D02*
X109754509Y-68200828D01*
X109754509Y-68200828D02*
X110611652Y-69700828D01*
X110611652Y-69700828D02*
X110611652Y-68200828D01*
G36*
X111811153Y-82014613D02*
G01*
X110040725Y-82014613D01*
X110040725Y-81100136D01*
X110207392Y-81100136D01*
X110207392Y-81158664D01*
X110229790Y-81212736D01*
X110271174Y-81254120D01*
X110325246Y-81276518D01*
X110354510Y-81279400D01*
X110775939Y-81279400D01*
X110775939Y-81700828D01*
X110778821Y-81730092D01*
X110801219Y-81784164D01*
X110842603Y-81825548D01*
X110896675Y-81847946D01*
X110955203Y-81847946D01*
X111009275Y-81825548D01*
X111050659Y-81784164D01*
X111073057Y-81730092D01*
X111075939Y-81700828D01*
X111075939Y-81279400D01*
X111497368Y-81279400D01*
X111526632Y-81276518D01*
X111580704Y-81254120D01*
X111622088Y-81212736D01*
X111644486Y-81158664D01*
X111644486Y-81100136D01*
X111622088Y-81046064D01*
X111580704Y-81004680D01*
X111526632Y-80982282D01*
X111497368Y-80979400D01*
X111075939Y-80979400D01*
X111075939Y-80557971D01*
X111073057Y-80528707D01*
X111050659Y-80474635D01*
X111009275Y-80433251D01*
X110955203Y-80410853D01*
X110896675Y-80410853D01*
X110842603Y-80433251D01*
X110801219Y-80474635D01*
X110778821Y-80528707D01*
X110775939Y-80557971D01*
X110775939Y-80979400D01*
X110354510Y-80979400D01*
X110325246Y-80982282D01*
X110271174Y-81004680D01*
X110229790Y-81046064D01*
X110207392Y-81100136D01*
X110040725Y-81100136D01*
X110040725Y-80244186D01*
X111811153Y-80244186D01*
X111811153Y-82014613D01*
G37*
D12*
X133788095Y-68254819D02*
X133788095Y-69064342D01*
X133788095Y-69064342D02*
X133835714Y-69159580D01*
X133835714Y-69159580D02*
X133883333Y-69207200D01*
X133883333Y-69207200D02*
X133978571Y-69254819D01*
X133978571Y-69254819D02*
X134169047Y-69254819D01*
X134169047Y-69254819D02*
X134264285Y-69207200D01*
X134264285Y-69207200D02*
X134311904Y-69159580D01*
X134311904Y-69159580D02*
X134359523Y-69064342D01*
X134359523Y-69064342D02*
X134359523Y-68254819D01*
X135359523Y-69254819D02*
X134788095Y-69254819D01*
X135073809Y-69254819D02*
X135073809Y-68254819D01*
X135073809Y-68254819D02*
X134978571Y-68397676D01*
X134978571Y-68397676D02*
X134883333Y-68492914D01*
X134883333Y-68492914D02*
X134788095Y-68540533D01*
X143759580Y-79766666D02*
X143807200Y-79814285D01*
X143807200Y-79814285D02*
X143854819Y-79957142D01*
X143854819Y-79957142D02*
X143854819Y-80052380D01*
X143854819Y-80052380D02*
X143807200Y-80195237D01*
X143807200Y-80195237D02*
X143711961Y-80290475D01*
X143711961Y-80290475D02*
X143616723Y-80338094D01*
X143616723Y-80338094D02*
X143426247Y-80385713D01*
X143426247Y-80385713D02*
X143283390Y-80385713D01*
X143283390Y-80385713D02*
X143092914Y-80338094D01*
X143092914Y-80338094D02*
X142997676Y-80290475D01*
X142997676Y-80290475D02*
X142902438Y-80195237D01*
X142902438Y-80195237D02*
X142854819Y-80052380D01*
X142854819Y-80052380D02*
X142854819Y-79957142D01*
X142854819Y-79957142D02*
X142902438Y-79814285D01*
X142902438Y-79814285D02*
X142950057Y-79766666D01*
X143188152Y-78909523D02*
X143854819Y-78909523D01*
X142807200Y-79147618D02*
X143521485Y-79385713D01*
X143521485Y-79385713D02*
X143521485Y-78766666D01*
X128054819Y-74866666D02*
X127578628Y-75199999D01*
X128054819Y-75438094D02*
X127054819Y-75438094D01*
X127054819Y-75438094D02*
X127054819Y-75057142D01*
X127054819Y-75057142D02*
X127102438Y-74961904D01*
X127102438Y-74961904D02*
X127150057Y-74914285D01*
X127150057Y-74914285D02*
X127245295Y-74866666D01*
X127245295Y-74866666D02*
X127388152Y-74866666D01*
X127388152Y-74866666D02*
X127483390Y-74914285D01*
X127483390Y-74914285D02*
X127531009Y-74961904D01*
X127531009Y-74961904D02*
X127578628Y-75057142D01*
X127578628Y-75057142D02*
X127578628Y-75438094D01*
X127150057Y-74485713D02*
X127102438Y-74438094D01*
X127102438Y-74438094D02*
X127054819Y-74342856D01*
X127054819Y-74342856D02*
X127054819Y-74104761D01*
X127054819Y-74104761D02*
X127102438Y-74009523D01*
X127102438Y-74009523D02*
X127150057Y-73961904D01*
X127150057Y-73961904D02*
X127245295Y-73914285D01*
X127245295Y-73914285D02*
X127340533Y-73914285D01*
X127340533Y-73914285D02*
X127483390Y-73961904D01*
X127483390Y-73961904D02*
X128054819Y-74533332D01*
X128054819Y-74533332D02*
X128054819Y-73914285D01*
X131254761Y-80900057D02*
X131159523Y-80852438D01*
X131159523Y-80852438D02*
X131064285Y-80757200D01*
X131064285Y-80757200D02*
X130921428Y-80614342D01*
X130921428Y-80614342D02*
X130826190Y-80566723D01*
X130826190Y-80566723D02*
X130730952Y-80566723D01*
X130778571Y-80804819D02*
X130683333Y-80757200D01*
X130683333Y-80757200D02*
X130588095Y-80661961D01*
X130588095Y-80661961D02*
X130540476Y-80471485D01*
X130540476Y-80471485D02*
X130540476Y-80138152D01*
X130540476Y-80138152D02*
X130588095Y-79947676D01*
X130588095Y-79947676D02*
X130683333Y-79852438D01*
X130683333Y-79852438D02*
X130778571Y-79804819D01*
X130778571Y-79804819D02*
X130969047Y-79804819D01*
X130969047Y-79804819D02*
X131064285Y-79852438D01*
X131064285Y-79852438D02*
X131159523Y-79947676D01*
X131159523Y-79947676D02*
X131207142Y-80138152D01*
X131207142Y-80138152D02*
X131207142Y-80471485D01*
X131207142Y-80471485D02*
X131159523Y-80661961D01*
X131159523Y-80661961D02*
X131064285Y-80757200D01*
X131064285Y-80757200D02*
X130969047Y-80804819D01*
X130969047Y-80804819D02*
X130778571Y-80804819D01*
X132159523Y-80804819D02*
X131588095Y-80804819D01*
X131873809Y-80804819D02*
X131873809Y-79804819D01*
X131873809Y-79804819D02*
X131778571Y-79947676D01*
X131778571Y-79947676D02*
X131683333Y-80042914D01*
X131683333Y-80042914D02*
X131588095Y-80090533D01*
X127959580Y-79666666D02*
X128007200Y-79714285D01*
X128007200Y-79714285D02*
X128054819Y-79857142D01*
X128054819Y-79857142D02*
X128054819Y-79952380D01*
X128054819Y-79952380D02*
X128007200Y-80095237D01*
X128007200Y-80095237D02*
X127911961Y-80190475D01*
X127911961Y-80190475D02*
X127816723Y-80238094D01*
X127816723Y-80238094D02*
X127626247Y-80285713D01*
X127626247Y-80285713D02*
X127483390Y-80285713D01*
X127483390Y-80285713D02*
X127292914Y-80238094D01*
X127292914Y-80238094D02*
X127197676Y-80190475D01*
X127197676Y-80190475D02*
X127102438Y-80095237D01*
X127102438Y-80095237D02*
X127054819Y-79952380D01*
X127054819Y-79952380D02*
X127054819Y-79857142D01*
X127054819Y-79857142D02*
X127102438Y-79714285D01*
X127102438Y-79714285D02*
X127150057Y-79666666D01*
X127150057Y-79285713D02*
X127102438Y-79238094D01*
X127102438Y-79238094D02*
X127054819Y-79142856D01*
X127054819Y-79142856D02*
X127054819Y-78904761D01*
X127054819Y-78904761D02*
X127102438Y-78809523D01*
X127102438Y-78809523D02*
X127150057Y-78761904D01*
X127150057Y-78761904D02*
X127245295Y-78714285D01*
X127245295Y-78714285D02*
X127340533Y-78714285D01*
X127340533Y-78714285D02*
X127483390Y-78761904D01*
X127483390Y-78761904D02*
X128054819Y-79333332D01*
X128054819Y-79333332D02*
X128054819Y-78714285D01*
X137679761Y-80900057D02*
X137584523Y-80852438D01*
X137584523Y-80852438D02*
X137489285Y-80757200D01*
X137489285Y-80757200D02*
X137346428Y-80614342D01*
X137346428Y-80614342D02*
X137251190Y-80566723D01*
X137251190Y-80566723D02*
X137155952Y-80566723D01*
X137203571Y-80804819D02*
X137108333Y-80757200D01*
X137108333Y-80757200D02*
X137013095Y-80661961D01*
X137013095Y-80661961D02*
X136965476Y-80471485D01*
X136965476Y-80471485D02*
X136965476Y-80138152D01*
X136965476Y-80138152D02*
X137013095Y-79947676D01*
X137013095Y-79947676D02*
X137108333Y-79852438D01*
X137108333Y-79852438D02*
X137203571Y-79804819D01*
X137203571Y-79804819D02*
X137394047Y-79804819D01*
X137394047Y-79804819D02*
X137489285Y-79852438D01*
X137489285Y-79852438D02*
X137584523Y-79947676D01*
X137584523Y-79947676D02*
X137632142Y-80138152D01*
X137632142Y-80138152D02*
X137632142Y-80471485D01*
X137632142Y-80471485D02*
X137584523Y-80661961D01*
X137584523Y-80661961D02*
X137489285Y-80757200D01*
X137489285Y-80757200D02*
X137394047Y-80804819D01*
X137394047Y-80804819D02*
X137203571Y-80804819D01*
X138013095Y-79900057D02*
X138060714Y-79852438D01*
X138060714Y-79852438D02*
X138155952Y-79804819D01*
X138155952Y-79804819D02*
X138394047Y-79804819D01*
X138394047Y-79804819D02*
X138489285Y-79852438D01*
X138489285Y-79852438D02*
X138536904Y-79900057D01*
X138536904Y-79900057D02*
X138584523Y-79995295D01*
X138584523Y-79995295D02*
X138584523Y-80090533D01*
X138584523Y-80090533D02*
X138536904Y-80233390D01*
X138536904Y-80233390D02*
X137965476Y-80804819D01*
X137965476Y-80804819D02*
X138584523Y-80804819D01*
X123859580Y-79666666D02*
X123907200Y-79714285D01*
X123907200Y-79714285D02*
X123954819Y-79857142D01*
X123954819Y-79857142D02*
X123954819Y-79952380D01*
X123954819Y-79952380D02*
X123907200Y-80095237D01*
X123907200Y-80095237D02*
X123811961Y-80190475D01*
X123811961Y-80190475D02*
X123716723Y-80238094D01*
X123716723Y-80238094D02*
X123526247Y-80285713D01*
X123526247Y-80285713D02*
X123383390Y-80285713D01*
X123383390Y-80285713D02*
X123192914Y-80238094D01*
X123192914Y-80238094D02*
X123097676Y-80190475D01*
X123097676Y-80190475D02*
X123002438Y-80095237D01*
X123002438Y-80095237D02*
X122954819Y-79952380D01*
X122954819Y-79952380D02*
X122954819Y-79857142D01*
X122954819Y-79857142D02*
X123002438Y-79714285D01*
X123002438Y-79714285D02*
X123050057Y-79666666D01*
X123954819Y-78714285D02*
X123954819Y-79285713D01*
X123954819Y-78999999D02*
X122954819Y-78999999D01*
X122954819Y-78999999D02*
X123097676Y-79095237D01*
X123097676Y-79095237D02*
X123192914Y-79190475D01*
X123192914Y-79190475D02*
X123240533Y-79285713D01*
X117761905Y-74054819D02*
X117761905Y-73054819D01*
X117761905Y-73054819D02*
X118000000Y-73054819D01*
X118000000Y-73054819D02*
X118142857Y-73102438D01*
X118142857Y-73102438D02*
X118238095Y-73197676D01*
X118238095Y-73197676D02*
X118285714Y-73292914D01*
X118285714Y-73292914D02*
X118333333Y-73483390D01*
X118333333Y-73483390D02*
X118333333Y-73626247D01*
X118333333Y-73626247D02*
X118285714Y-73816723D01*
X118285714Y-73816723D02*
X118238095Y-73911961D01*
X118238095Y-73911961D02*
X118142857Y-74007200D01*
X118142857Y-74007200D02*
X118000000Y-74054819D01*
X118000000Y-74054819D02*
X117761905Y-74054819D01*
X119285714Y-74054819D02*
X118714286Y-74054819D01*
X119000000Y-74054819D02*
X119000000Y-73054819D01*
X119000000Y-73054819D02*
X118904762Y-73197676D01*
X118904762Y-73197676D02*
X118809524Y-73292914D01*
X118809524Y-73292914D02*
X118714286Y-73340533D01*
X123954819Y-70166666D02*
X123478628Y-70499999D01*
X123954819Y-70738094D02*
X122954819Y-70738094D01*
X122954819Y-70738094D02*
X122954819Y-70357142D01*
X122954819Y-70357142D02*
X123002438Y-70261904D01*
X123002438Y-70261904D02*
X123050057Y-70214285D01*
X123050057Y-70214285D02*
X123145295Y-70166666D01*
X123145295Y-70166666D02*
X123288152Y-70166666D01*
X123288152Y-70166666D02*
X123383390Y-70214285D01*
X123383390Y-70214285D02*
X123431009Y-70261904D01*
X123431009Y-70261904D02*
X123478628Y-70357142D01*
X123478628Y-70357142D02*
X123478628Y-70738094D01*
X122954819Y-69833332D02*
X122954819Y-69214285D01*
X122954819Y-69214285D02*
X123335771Y-69547618D01*
X123335771Y-69547618D02*
X123335771Y-69404761D01*
X123335771Y-69404761D02*
X123383390Y-69309523D01*
X123383390Y-69309523D02*
X123431009Y-69261904D01*
X123431009Y-69261904D02*
X123526247Y-69214285D01*
X123526247Y-69214285D02*
X123764342Y-69214285D01*
X123764342Y-69214285D02*
X123859580Y-69261904D01*
X123859580Y-69261904D02*
X123907200Y-69309523D01*
X123907200Y-69309523D02*
X123954819Y-69404761D01*
X123954819Y-69404761D02*
X123954819Y-69690475D01*
X123954819Y-69690475D02*
X123907200Y-69785713D01*
X123907200Y-69785713D02*
X123859580Y-69833332D01*
X123959580Y-74966666D02*
X124007200Y-75014285D01*
X124007200Y-75014285D02*
X124054819Y-75157142D01*
X124054819Y-75157142D02*
X124054819Y-75252380D01*
X124054819Y-75252380D02*
X124007200Y-75395237D01*
X124007200Y-75395237D02*
X123911961Y-75490475D01*
X123911961Y-75490475D02*
X123816723Y-75538094D01*
X123816723Y-75538094D02*
X123626247Y-75585713D01*
X123626247Y-75585713D02*
X123483390Y-75585713D01*
X123483390Y-75585713D02*
X123292914Y-75538094D01*
X123292914Y-75538094D02*
X123197676Y-75490475D01*
X123197676Y-75490475D02*
X123102438Y-75395237D01*
X123102438Y-75395237D02*
X123054819Y-75252380D01*
X123054819Y-75252380D02*
X123054819Y-75157142D01*
X123054819Y-75157142D02*
X123102438Y-75014285D01*
X123102438Y-75014285D02*
X123150057Y-74966666D01*
X123054819Y-74633332D02*
X123054819Y-74014285D01*
X123054819Y-74014285D02*
X123435771Y-74347618D01*
X123435771Y-74347618D02*
X123435771Y-74204761D01*
X123435771Y-74204761D02*
X123483390Y-74109523D01*
X123483390Y-74109523D02*
X123531009Y-74061904D01*
X123531009Y-74061904D02*
X123626247Y-74014285D01*
X123626247Y-74014285D02*
X123864342Y-74014285D01*
X123864342Y-74014285D02*
X123959580Y-74061904D01*
X123959580Y-74061904D02*
X124007200Y-74109523D01*
X124007200Y-74109523D02*
X124054819Y-74204761D01*
X124054819Y-74204761D02*
X124054819Y-74490475D01*
X124054819Y-74490475D02*
X124007200Y-74585713D01*
X124007200Y-74585713D02*
X123959580Y-74633332D01*
X118333333Y-77654819D02*
X118000000Y-77178628D01*
X117761905Y-77654819D02*
X117761905Y-76654819D01*
X117761905Y-76654819D02*
X118142857Y-76654819D01*
X118142857Y-76654819D02*
X118238095Y-76702438D01*
X118238095Y-76702438D02*
X118285714Y-76750057D01*
X118285714Y-76750057D02*
X118333333Y-76845295D01*
X118333333Y-76845295D02*
X118333333Y-76988152D01*
X118333333Y-76988152D02*
X118285714Y-77083390D01*
X118285714Y-77083390D02*
X118238095Y-77131009D01*
X118238095Y-77131009D02*
X118142857Y-77178628D01*
X118142857Y-77178628D02*
X117761905Y-77178628D01*
X119285714Y-77654819D02*
X118714286Y-77654819D01*
X119000000Y-77654819D02*
X119000000Y-76654819D01*
X119000000Y-76654819D02*
X118904762Y-76797676D01*
X118904762Y-76797676D02*
X118809524Y-76892914D01*
X118809524Y-76892914D02*
X118714286Y-76940533D01*
X148949405Y-74154819D02*
X148949405Y-73154819D01*
X148949405Y-73154819D02*
X149187500Y-73154819D01*
X149187500Y-73154819D02*
X149330357Y-73202438D01*
X149330357Y-73202438D02*
X149425595Y-73297676D01*
X149425595Y-73297676D02*
X149473214Y-73392914D01*
X149473214Y-73392914D02*
X149520833Y-73583390D01*
X149520833Y-73583390D02*
X149520833Y-73726247D01*
X149520833Y-73726247D02*
X149473214Y-73916723D01*
X149473214Y-73916723D02*
X149425595Y-74011961D01*
X149425595Y-74011961D02*
X149330357Y-74107200D01*
X149330357Y-74107200D02*
X149187500Y-74154819D01*
X149187500Y-74154819D02*
X148949405Y-74154819D01*
X149901786Y-73250057D02*
X149949405Y-73202438D01*
X149949405Y-73202438D02*
X150044643Y-73154819D01*
X150044643Y-73154819D02*
X150282738Y-73154819D01*
X150282738Y-73154819D02*
X150377976Y-73202438D01*
X150377976Y-73202438D02*
X150425595Y-73250057D01*
X150425595Y-73250057D02*
X150473214Y-73345295D01*
X150473214Y-73345295D02*
X150473214Y-73440533D01*
X150473214Y-73440533D02*
X150425595Y-73583390D01*
X150425595Y-73583390D02*
X149854167Y-74154819D01*
X149854167Y-74154819D02*
X150473214Y-74154819D01*
X149445833Y-77854819D02*
X149112500Y-77378628D01*
X148874405Y-77854819D02*
X148874405Y-76854819D01*
X148874405Y-76854819D02*
X149255357Y-76854819D01*
X149255357Y-76854819D02*
X149350595Y-76902438D01*
X149350595Y-76902438D02*
X149398214Y-76950057D01*
X149398214Y-76950057D02*
X149445833Y-77045295D01*
X149445833Y-77045295D02*
X149445833Y-77188152D01*
X149445833Y-77188152D02*
X149398214Y-77283390D01*
X149398214Y-77283390D02*
X149350595Y-77331009D01*
X149350595Y-77331009D02*
X149255357Y-77378628D01*
X149255357Y-77378628D02*
X148874405Y-77378628D01*
X150302976Y-77188152D02*
X150302976Y-77854819D01*
X150064881Y-76807200D02*
X149826786Y-77521485D01*
X149826786Y-77521485D02*
X150445833Y-77521485D01*
D13*
%TO.C,U1*%
X132915000Y-71750000D02*
X132915000Y-70950000D01*
X132915000Y-71750000D02*
X132915000Y-72550000D01*
X136035000Y-71750000D02*
X136035000Y-70950000D01*
X136035000Y-71750000D02*
X136035000Y-72550000D01*
X136290000Y-70690000D02*
X135960000Y-70450000D01*
X136290000Y-70210000D01*
X136290000Y-70690000D01*
G36*
X136290000Y-70690000D02*
G01*
X135960000Y-70450000D01*
X136290000Y-70210000D01*
X136290000Y-70690000D01*
G37*
%TO.C,C4*%
X144765000Y-79961252D02*
X144765000Y-79438748D01*
X146235000Y-79961252D02*
X146235000Y-79438748D01*
%TO.C,R2*%
X124965000Y-74927064D02*
X124965000Y-74472936D01*
X126435000Y-74927064D02*
X126435000Y-74472936D01*
D11*
%TO.C,Q1*%
X129863000Y-75450000D02*
X132662000Y-75450000D01*
X129863000Y-78600000D02*
X132662000Y-78600000D01*
D14*
X133663000Y-78000000D02*
X133663000Y-78000000D01*
X133762000Y-78000000D02*
X133762000Y-78000000D01*
X133663000Y-78000000D02*
G75*
G02*
X133762000Y-78000000I49500J0D01*
G01*
X133762000Y-78000000D02*
G75*
G02*
X133663000Y-78000000I-49500J0D01*
G01*
D13*
%TO.C,C2*%
X124965000Y-79188748D02*
X124965000Y-79711252D01*
X126435000Y-79188748D02*
X126435000Y-79711252D01*
D14*
%TO.C,Q2*%
X135188000Y-76050000D02*
X135188000Y-76050000D01*
X135287000Y-76050000D02*
X135287000Y-76050000D01*
D11*
X139087000Y-75450000D02*
X136288000Y-75450000D01*
X139087000Y-78600000D02*
X136288000Y-78600000D01*
D14*
X135188000Y-76050000D02*
G75*
G02*
X135287000Y-76050000I49500J0D01*
G01*
X135287000Y-76050000D02*
G75*
G02*
X135188000Y-76050000I-49500J0D01*
G01*
D13*
%TO.C,C1*%
X120865000Y-79861252D02*
X120865000Y-79338748D01*
X122335000Y-79861252D02*
X122335000Y-79338748D01*
%TO.C,D1*%
X114115000Y-72540000D02*
X114115000Y-74460000D01*
X114115000Y-74460000D02*
X116800000Y-74460000D01*
X116800000Y-72540000D02*
X114115000Y-72540000D01*
%TO.C,R3*%
X124965000Y-70427064D02*
X124965000Y-69972936D01*
X126435000Y-70427064D02*
X126435000Y-69972936D01*
%TO.C,J3*%
X154967500Y-76950000D02*
X155567500Y-77250000D01*
X154967500Y-77550000D02*
X154967500Y-76950000D01*
X155567500Y-77250000D02*
X154967500Y-77550000D01*
X156257500Y-70730000D02*
X156257500Y-72390000D01*
X156257500Y-76200000D02*
X156257500Y-74490000D01*
X156257500Y-79960000D02*
X156257500Y-78300000D01*
X156257500Y-79960000D02*
X165677500Y-79960000D01*
X162367500Y-79960000D02*
X162367500Y-70730000D01*
X165677500Y-70730000D02*
X156257500Y-70730000D01*
X165677500Y-79960000D02*
X165677500Y-70730000D01*
%TO.C,C3*%
X120865000Y-74961252D02*
X120865000Y-74438748D01*
X122335000Y-74961252D02*
X122335000Y-74438748D01*
%TO.C,J1*%
X102390000Y-70690000D02*
X102390000Y-79920000D01*
X102390000Y-79920000D02*
X111810000Y-79920000D01*
X105700000Y-70690000D02*
X105700000Y-79920000D01*
X111810000Y-70690000D02*
X102390000Y-70690000D01*
X111810000Y-70690000D02*
X111810000Y-72350000D01*
X111810000Y-74450000D02*
X111810000Y-76160000D01*
X111810000Y-79920000D02*
X111810000Y-78260000D01*
X112500000Y-73400000D02*
X113100000Y-73100000D01*
X113100000Y-73100000D02*
X113100000Y-73700000D01*
X113100000Y-73700000D02*
X112500000Y-73400000D01*
%TO.C,R1*%
X115827064Y-76465000D02*
X115372936Y-76465000D01*
X115827064Y-77935000D02*
X115372936Y-77935000D01*
%TO.C,D2*%
X151487500Y-74660000D02*
X154172500Y-74660000D01*
X154172500Y-72740000D02*
X151487500Y-72740000D01*
X154172500Y-74660000D02*
X154172500Y-72740000D01*
%TO.C,R4*%
X152260436Y-76665000D02*
X152714564Y-76665000D01*
X152260436Y-78135000D02*
X152714564Y-78135000D01*
%TD*%
M02*
